<svg xmlns="http://www.w3.org/2000/svg" width="500" height="500" viewBox="0 0 500 500" version="1.1"><path d="M 211.752 132.086 C 204.344 133.171, 202 134.469, 202 137.485 C 202 141.199, 204.243 141.753, 212.668 140.122 C 226.820 137.382, 240.365 141.438, 251.027 151.608 C 257.134 157.432, 262.390 166.229, 263.592 172.638 C 264.412 177.011, 266.906 178.455, 269.952 176.321 C 271.867 174.980, 272.119 174.145, 271.595 170.871 C 270.674 165.111, 266.558 156.491, 261.946 150.665 C 253.892 140.491, 244.222 134.588, 232.050 132.417 C 223.629 130.914, 220.139 130.857, 211.752 132.086 M 135.704 137.867 C 127.564 138.800, 125.327 142.800, 128.962 149.925 C 131.470 154.842, 135.028 156.609, 139.615 155.216 C 141.619 154.607, 143.363 154.624, 144.502 155.261 C 145.684 155.922, 147.422 155.899, 149.731 155.191 C 152.229 154.424, 153.882 154.445, 155.684 155.266 C 157.768 156.215, 158.907 156.015, 162.611 154.051 C 166.361 152.061, 167.438 151.878, 169.603 152.865 C 171.024 153.513, 172.885 155.724, 173.789 157.841 L 175.416 161.651 178.741 158.325 C 180.570 156.496, 182.952 155, 184.033 155 C 186.426 155, 186.471 154.134, 184.217 151.475 C 181.201 147.917, 175.646 144.318, 170.572 142.635 C 163.958 140.441, 150.017 140.566, 138 142.927 C 132.775 143.954, 128.377 144.680, 128.226 144.540 C 128.076 144.400, 128.212 143.610, 128.529 142.784 C 129.811 139.443, 133.577 138.752, 151.190 138.625 L 168.545 138.500 174.740 141.563 C 178.147 143.248, 180.486 144.085, 179.936 143.423 C 179.387 142.761, 176.589 141.173, 173.719 139.893 C 169.186 137.873, 166.726 137.543, 155 137.385 C 147.575 137.285, 138.892 137.502, 135.704 137.867 M 208.370 149.440 C 204.627 151.069, 203.672 152.392, 204.456 154.861 C 204.981 156.516, 206.186 156.694, 216.270 156.602 C 226.654 156.508, 227.887 156.704, 232.638 159.210 C 239.216 162.680, 244.318 168.671, 247.264 176.386 C 249.659 182.660, 251.764 184.271, 254.548 181.960 C 256.531 180.314, 256.371 177.065, 253.992 170.708 C 250.454 161.252, 241.743 153.072, 231.572 149.655 C 225.587 147.645, 212.768 147.526, 208.370 149.440 M 181.904 159.282 C 180.059 160.690, 177 166.275, 177 168.237 C 177 170.582, 189.932 218.731, 194.600 233.769 C 199.858 250.704, 202.865 257.101, 207.007 260.163 L 210.008 262.382 207.557 264.941 C 204.048 268.605, 202 274.157, 202 280.008 C 202 287.873, 206.096 294.462, 213.500 298.506 C 216.430 300.106, 216.313 300.130, 208.500 299.525 C 188.135 297.948, 169.191 294.480, 158.500 290.373 C 155.069 289.055, 163.137 295.527, 169 298.796 C 205.167 318.961, 271.882 321.853, 319.396 305.314 C 324.939 303.385, 330.831 301.119, 332.487 300.279 C 338.946 297.005, 349.051 289.738, 351.051 286.929 L 353.152 283.978 349.734 285.994 C 345.421 288.539, 332.629 292.390, 321.819 294.398 C 302.018 298.076, 264.650 301.031, 239 300.946 L 228.500 300.912 232.100 299.009 C 235.514 297.204, 241.346 291.451, 242.134 289.108 C 242.500 288.023, 261.332 283.366, 278.683 280.070 L 287.865 278.326 288.458 280.688 C 289.365 284.302, 295.714 290.751, 299.641 292.047 C 307.972 294.796, 318.375 289.821, 321.522 281.582 C 326.036 269.763, 317.696 257.769, 304.964 257.769 C 299.667 257.769, 296.826 258.986, 292.434 263.138 C 289.944 265.492, 287.702 266.327, 280.504 267.583 C 275.629 268.434, 265.823 270.451, 258.713 272.065 C 251.603 273.679, 245.390 275, 244.906 275 C 244.423 275, 243.329 273.329, 242.475 271.287 C 241.622 269.244, 240.239 266.817, 239.402 265.892 C 237.996 264.338, 238.360 264.159, 244.190 263.532 C 271.234 260.623, 298.924 253.438, 310.084 246.434 C 327.156 235.719, 331.864 212.374, 325.428 170.347 C 325.163 168.612, 324.278 166.937, 323.461 166.623 C 322.159 166.124, 322.162 166.413, 323.488 168.977 C 325.491 172.849, 325.400 173.687, 323.250 171.189 C 321.513 169.170, 321.396 169.212, 307 177.074 C 268.786 197.942, 228.244 212, 206.276 212 L 202.436 212 198.725 198.717 C 196.684 191.411, 193.550 179.261, 191.760 171.717 C 188.646 158.590, 188.399 158.001, 186.003 158.032 C 184.626 158.049, 182.782 158.612, 181.904 159.282 M 216.500 164.497 C 215.950 164.684, 213.813 165.118, 211.750 165.463 C 208.404 166.023, 208 166.409, 208 169.045 C 208 172.280, 208.161 172.343, 215.635 172.039 C 223.548 171.717, 229.149 175.473, 232.353 183.250 C 233.203 185.313, 234.334 187, 234.867 187 C 237.562 187, 239 185.560, 239 182.861 C 239 175.412, 232.650 168.161, 223.833 165.543 C 218.499 163.959, 218.208 163.918, 216.500 164.497 M 212 182 C 207.526 186.474, 210.878 194, 217.345 194 C 221.078 194, 223.491 191.914, 224.518 187.800 C 226.007 181.833, 216.549 177.451, 212 182 M 305.691 186.343 C 297.988 190.444, 297.890 190.546, 298.399 193.874 C 298.682 195.730, 299.131 197.464, 299.395 197.728 C 299.659 197.992, 303.053 196.492, 306.938 194.394 C 313.997 190.581, 314 190.577, 314 186.290 C 314 183.930, 313.887 182.042, 313.750 182.093 C 313.613 182.143, 309.986 184.056, 305.691 186.343 M 294.340 193.625 C 294.644 194.656, 295.192 197.188, 295.558 199.250 C 295.924 201.313, 296.510 202.994, 296.861 202.986 C 297.875 202.964, 312.392 194.949, 313.500 193.800 C 314.050 193.230, 311.087 194.616, 306.915 196.882 C 302.743 199.147, 298.845 201, 298.253 201 C 297.660 201, 296.872 199.202, 296.501 197.005 C 296.130 194.808, 295.367 192.727, 294.806 192.380 C 294.190 191.999, 294.005 192.492, 294.340 193.625 M 284.643 196.701 C 281.005 198.208, 280.819 198.496, 281.351 201.773 C 281.661 203.684, 282.121 205.455, 282.374 205.707 C 282.627 205.960, 284.946 205.233, 287.527 204.091 C 291.006 202.552, 292.062 201.604, 291.610 200.426 C 291.274 199.552, 291 197.973, 291 196.918 C 291 194.623, 289.760 194.581, 284.643 196.701 M 307.715 201.882 C 301.567 205.161, 300.989 205.734, 301.547 207.998 C 301.885 209.372, 302.322 210.656, 302.517 210.851 C 302.713 211.046, 305.601 209.705, 308.936 207.872 C 314.438 204.847, 315 204.235, 315 201.269 C 315 199.471, 314.887 198.059, 314.750 198.132 C 314.613 198.204, 311.447 199.892, 307.715 201.882 M 278.292 205.250 C 278.845 208.137, 279.420 210.653, 279.572 210.840 C 279.723 211.028, 282.591 209.949, 285.944 208.444 C 289.298 206.940, 291.874 205.541, 291.670 205.336 C 291.465 205.132, 289.318 205.863, 286.899 206.960 C 284.480 208.058, 281.989 208.966, 281.364 208.978 C 280.738 208.990, 279.923 206.975, 279.552 204.500 C 279.181 202.025, 278.520 200, 278.083 200 C 277.645 200, 277.740 202.363, 278.292 205.250 M 267.163 203.696 C 263.497 204.988, 262.914 205.556, 263.399 207.362 C 263.715 208.538, 263.979 210.287, 263.986 211.250 C 264.004 213.468, 265.457 213.429, 270.643 211.075 C 274.559 209.296, 274.750 209.014, 274.118 205.921 C 273.305 201.946, 272.687 201.748, 267.163 203.696 M 260.416 208.875 C 260.737 210.731, 261.007 212.981, 261.015 213.875 C 261.052 217.776, 262.444 218.190, 268.089 215.977 C 271.065 214.811, 273.950 213.411, 274.500 212.866 C 275.541 211.834, 273.898 212.375, 266.847 215.386 C 262.745 217.137, 262.015 216.504, 261.985 211.168 C 261.976 209.701, 261.488 207.825, 260.900 207 C 260.091 205.864, 259.973 206.319, 260.416 208.875 M 298.575 210.492 C 299.288 215.186, 299.810 216.236, 301.049 215.470 C 301.580 215.142, 301.594 214.197, 301.082 213.204 C 300.600 212.267, 299.702 210.375, 299.087 209 C 298.102 206.799, 298.041 206.978, 298.575 210.492 M 249.141 209.699 L 244.783 211.239 245.437 215.332 C 245.797 217.583, 246.208 219.541, 246.350 219.683 C 246.492 219.825, 248.983 219.182, 251.886 218.254 C 256.920 216.644, 257.136 216.432, 256.582 213.658 C 256.262 212.059, 256 210.131, 256 209.375 C 256 207.673, 254.699 207.734, 249.141 209.699 M 287.750 212.068 C 285.409 213.304, 284 214.768, 284 215.965 C 284 218.947, 285.402 219.152, 290.467 216.911 C 293.798 215.438, 294.986 214.405, 294.576 213.338 C 294.259 212.512, 294 211.423, 294 210.918 C 294 209.503, 291.865 209.896, 287.750 212.068 M 242.678 217.500 C 242.996 220.800, 243.535 223.801, 243.878 224.170 C 244.220 224.538, 245.850 224.232, 247.500 223.490 L 250.500 222.139 247.250 222.695 C 244.056 223.241, 243.999 223.184, 243.930 219.375 C 243.891 217.244, 243.464 214.600, 242.980 213.500 C 242.420 212.226, 242.311 213.677, 242.678 217.500 M 231.203 214.774 C 227.389 215.883, 226.060 216.713, 226.453 217.739 C 226.754 218.522, 227 220.678, 227 222.528 L 227 225.892 232.250 224.341 C 235.137 223.488, 237.731 222.651, 238.014 222.481 C 238.759 222.036, 237.922 212.978, 237.149 213.116 C 236.792 213.180, 234.116 213.926, 231.203 214.774 M 309.250 215.675 C 305.042 218.126, 304.465 219.404, 305.622 223.719 C 306.183 225.812, 306.379 225.855, 309.038 224.480 C 310.589 223.678, 312.082 222.229, 312.354 221.261 C 313.244 218.105, 314.167 212.998, 313.829 213.100 C 313.648 213.155, 311.587 214.314, 309.250 215.675 M 281.583 218.962 C 281.863 221.417, 282.247 223.581, 282.438 223.771 C 282.898 224.231, 296 218.274, 296 217.605 C 296 217.318, 293.130 218.371, 289.622 219.945 L 283.243 222.807 282.159 218.654 L 281.074 214.500 281.583 218.962 M 224.185 222.691 C 224.081 226.173, 224.463 229.168, 225.059 229.536 C 226.306 230.307, 239 227.048, 239 225.956 C 239 225.546, 236.222 226.074, 232.826 227.131 C 229.431 228.188, 226.307 228.703, 225.884 228.276 C 225.461 227.849, 224.947 225.025, 224.742 222 L 224.370 216.500 224.185 222.691 M 270.750 219.264 C 267.022 220.822, 266 221.748, 266 223.566 C 266 226.947, 267.275 227.240, 272.410 225.039 C 276.098 223.458, 277 222.584, 277 220.595 C 277 217.161, 276.191 216.989, 270.750 219.264 M 210.867 219.678 L 205.235 221.158 206.765 225.946 L 208.296 230.733 213.898 229.274 C 216.979 228.472, 219.646 227.674, 219.825 227.500 C 220.658 226.689, 218.638 218.012, 217.636 218.099 C 217.011 218.154, 213.965 218.864, 210.867 219.678 M 253.500 220.535 C 250.988 221.745, 250.906 221.882, 253 221.378 C 254.375 221.046, 255.928 220.376, 256.450 219.888 C 257.746 218.677, 257.034 218.833, 253.500 220.535 M 301.564 222.500 C 302.643 227.085, 304.213 229.180, 303.438 225 C 303.081 223.075, 302.355 221.050, 301.824 220.500 C 301.201 219.854, 301.109 220.563, 301.564 222.500 M 291.750 224.616 C 286.935 227.072, 286.074 228.937, 287.820 233.134 C 288.432 234.603, 289.022 234.536, 293.692 232.466 L 298.884 230.164 297.837 226.332 C 297.262 224.224, 296.725 222.431, 296.645 222.347 C 296.565 222.262, 294.363 223.284, 291.750 224.616 M 263.436 226.833 C 263.654 229.216, 264.055 231.388, 264.328 231.661 C 264.600 231.933, 266.100 231.445, 267.662 230.575 L 270.500 228.994 267.868 229.576 C 265.501 230.099, 265.125 229.772, 264.138 226.329 L 263.040 222.500 263.436 226.833 M 251.250 226.651 C 247.064 228.144, 246.043 229.945, 247.808 232.724 C 248.411 233.672, 249.771 233.570, 253.840 232.268 C 258.520 230.772, 259.061 230.312, 258.797 228.053 C 258.436 224.971, 256.807 224.669, 251.250 226.651 M 273 227.500 C 271.625 228.286, 270.950 228.929, 271.500 228.929 C 272.050 228.929, 273.625 228.286, 275 227.500 C 276.375 226.714, 277.050 226.071, 276.500 226.071 C 275.950 226.071, 274.375 226.714, 273 227.500 M 283.578 230.500 C 284.868 235.879, 286.088 237.844, 285.440 233.500 C 285.113 231.300, 284.398 229.050, 283.851 228.500 C 283.194 227.837, 283.101 228.512, 283.578 230.500 M 244.648 233.500 C 244.982 236.250, 245.424 238.688, 245.628 238.917 C 246.411 239.794, 245.815 232.401, 244.949 230.500 C 244.336 229.154, 244.238 230.134, 244.648 233.500 M 213 232.584 L 208.500 233.972 212.904 233.449 C 217.213 232.938, 222.366 230.976, 219 231.129 C 218.175 231.166, 215.475 231.821, 213 232.584 M 232.750 232.600 C 228.478 233.914, 228 234.359, 228 237.030 C 228 240.513, 227.812 240.477, 234.662 238.317 C 239.451 236.808, 240 236.345, 240 233.817 C 240 230.627, 239.462 230.536, 232.750 232.600 M 272.730 233.214 C 268.043 235.230, 267.971 235.330, 268.612 238.883 C 268.971 240.872, 269.318 242.559, 269.383 242.631 C 269.447 242.703, 271.863 241.856, 274.750 240.747 C 280.107 238.691, 281.080 236.979, 279.393 232.582 C 278.656 230.662, 278.665 230.661, 272.730 233.214 M 254.188 234.683 C 251.816 235.522, 250.052 236.385, 250.268 236.601 C 250.724 237.058, 260 234.012, 260 233.406 C 260 232.780, 258.862 233.030, 254.188 234.683 M 225.207 237.500 C 225.203 239.150, 225.492 241.469, 225.850 242.653 L 226.500 244.807 233.500 242.503 C 241.260 239.949, 241.332 239.162, 233.591 241.511 C 230.891 242.330, 228.330 243, 227.900 243 C 227.470 243, 226.689 241.088, 226.166 238.750 C 225.383 235.252, 225.213 235.031, 225.207 237.500 M 293.656 237.116 C 291.541 238.232, 290.069 239.402, 290.383 239.717 C 291.185 240.519, 300 237.036, 300 235.917 C 300 234.495, 297.858 234.900, 293.656 237.116 M 215.181 237.335 C 211.184 238.240, 210.910 238.507, 211.512 240.905 C 212.382 244.371, 212.344 244.353, 216.696 243.329 C 219.588 242.648, 220.580 241.874, 220.835 240.101 C 221.308 236.801, 220.116 236.217, 215.181 237.335 M 265.189 237.500 C 265.215 238.600, 265.580 240.850, 266 242.500 L 266.763 245.500 266.811 242.500 C 266.838 240.850, 266.473 238.600, 266 237.500 L 265.141 235.500 265.189 237.500 M 254.250 240.295 C 250.165 241.817, 249.003 242.722, 249.015 244.375 C 249.051 249.318, 251.483 249.912, 259.205 246.863 C 261.561 245.932, 261.834 245.390, 261.322 242.648 C 261 240.916, 260.458 239.239, 260.118 238.920 C 259.778 238.601, 257.137 239.220, 254.250 240.295 M 246 245.274 C 246 246.709, 246.468 248.171, 247.040 248.525 C 247.722 248.946, 247.846 248.192, 247.399 246.334 C 246.479 242.502, 246 242.140, 246 245.274 M 216.500 246.551 L 213.500 248.011 216.500 247.435 C 218.150 247.118, 219.928 246.440, 220.450 245.929 C 221.855 244.555, 220 244.847, 216.500 246.551 M 235.500 246.718 C 227.817 248.947, 227.753 250, 235.300 250 C 241.948 250, 243.138 249.275, 241.235 246.384 C 240.702 245.575, 239.123 245.667, 235.500 246.718 M 299.299 263.624 C 297.538 264.492, 295.335 266.366, 294.403 267.789 L 292.709 270.374 295.485 268.191 C 301.529 263.436, 309.624 263.419, 314.660 268.150 C 315.947 269.359, 317 269.899, 317 269.349 C 317 268.120, 313.269 264.646, 310.316 263.125 C 307.288 261.566, 303.087 261.756, 299.299 263.624 M 216.500 265.164 C 213.644 266.740, 209 271.196, 209 272.361 C 209 272.904, 210.012 272.400, 211.250 271.241 C 217.572 265.319, 228.793 265.800, 235.872 272.298 C 238.074 274.319, 238.186 274.336, 237.228 272.500 C 235.965 270.081, 232.294 266.659, 229.316 265.125 C 226.544 263.698, 219.117 263.720, 216.500 265.164 M 271 272.476 C 253.034 276.100, 243.332 278.665, 244.222 279.555 C 244.501 279.835, 250.753 278.747, 258.115 277.139 C 265.477 275.531, 274.650 273.658, 278.500 272.978 C 282.350 272.298, 286.175 271.363, 287 270.901 C 289.697 269.391, 283.051 270.045, 271 272.476 M 171.554 317.913 C 171.215 318.460, 171.173 319.941, 171.460 321.204 C 172.178 324.372, 166.712 342.022, 164.656 343.173 C 162.485 344.388, 162.538 346.733, 164.750 347.366 C 165.713 347.642, 171.050 349.247, 176.611 350.934 C 182.172 352.620, 187.032 354, 187.412 354 C 187.791 354, 188.785 352.366, 189.619 350.368 C 191.455 345.976, 190.193 343.774, 186.989 345.775 C 184.657 347.231, 180.083 347.362, 176.685 346.070 C 174.371 345.190, 174.298 344.924, 175.327 341.070 C 176.581 336.372, 178.085 335.994, 181.591 339.500 C 185.087 342.996, 186.493 342.635, 187.919 337.877 C 189.371 333.031, 188.344 331.211, 185.128 332.932 C 182.264 334.464, 177.792 333.266, 178.422 331.134 C 178.688 330.235, 179.204 328.249, 179.569 326.719 C 180.112 324.441, 180.618 324.059, 182.366 324.603 C 187.484 326.196, 188.834 327.001, 190.716 329.584 C 191.954 331.285, 193.286 332.104, 194.224 331.744 C 195.932 331.089, 197.265 325.933, 196.051 324.678 C 195.614 324.226, 191.036 322.612, 185.878 321.093 C 180.720 319.573, 175.525 318.012, 174.334 317.624 C 173.143 317.236, 171.892 317.366, 171.554 317.913 M 312.813 321.817 C 308.035 323.293, 303.767 324.868, 303.328 325.318 C 302.889 325.769, 303.487 326.894, 304.657 327.818 C 307.246 329.864, 312.474 346.975, 311.589 350.502 C 310.779 353.729, 312.177 354.316, 317.229 352.871 C 323.630 351.041, 324.465 350.123, 322.059 347.563 C 320.955 346.388, 319.928 344.375, 319.776 343.090 C 319.549 341.167, 320.207 340.510, 323.500 339.373 C 331.159 336.729, 333.914 330.601, 330.452 323.907 C 329.013 321.125, 325.459 318.910, 322.685 319.067 C 322.033 319.104, 317.591 320.342, 312.813 321.817 M 315 326.057 C 315 326.639, 315.503 329.114, 316.119 331.557 C 317.352 336.456, 319.472 337.346, 322.345 334.171 C 324.411 331.889, 324.436 330.068, 322.443 327.223 C 320.829 324.918, 315 324.005, 315 326.057 M 286.016 326.980 C 284.076 327.461, 281.085 329.422, 279.266 331.407 C 276.531 334.391, 276.001 335.745, 276.006 339.735 C 276.014 346.543, 277.756 351.910, 281.017 355.171 C 283.476 357.630, 284.608 358, 289.673 357.996 C 296.151 357.992, 300.738 355.856, 303.578 351.521 C 305.715 348.259, 305.115 336.351, 302.622 332.546 C 299.220 327.353, 292.967 325.257, 286.016 326.980 M 223.256 329.028 C 218.854 330.001, 217.166 331.598, 216.438 335.479 C 215.482 340.577, 218.046 344.482, 223.729 346.581 C 229.657 348.772, 231 349.773, 231 352 C 231 357.037, 223.596 357.008, 221.838 351.965 C 221.085 349.805, 220.162 349, 218.437 349 C 215.232 349, 213.636 352.107, 215.143 355.414 C 216.533 358.465, 220.989 360.099, 228.069 360.154 C 234.487 360.204, 238.122 357.798, 239.431 352.635 C 240.694 347.650, 238.050 344.188, 230.901 341.468 C 226.465 339.780, 225.445 338.945, 225.192 336.792 C 224.972 334.920, 225.431 333.998, 226.801 333.563 C 229.659 332.656, 231.451 333.708, 232.704 337.027 C 233.555 339.282, 234.459 340, 236.445 340 C 239.423 340, 240.499 338.125, 239.593 334.516 C 238.538 330.312, 230.170 327.501, 223.256 329.028 M 246.250 330.732 C 241.940 331.120, 240.904 332.504, 243.204 334.804 C 244.997 336.597, 245.579 354.549, 243.943 357.606 C 241.965 361.302, 243.747 362.387, 250.425 361.553 C 256.161 360.836, 257.423 359.426, 254.500 357 C 253.639 356.285, 253 354.104, 253 351.878 L 253 348 257.889 348 C 262.677 348, 262.791 348.071, 263.429 351.474 C 263.875 353.848, 263.592 355.692, 262.537 357.303 C 261.688 358.599, 261.295 359.961, 261.663 360.330 C 262.032 360.698, 264.958 361, 268.167 361 C 273.117 361, 274 360.728, 274 359.200 C 274 358.210, 273.605 356.972, 273.123 356.450 C 272.640 355.928, 272.013 350.984, 271.729 345.465 C 271.340 337.913, 271.549 334.969, 272.574 333.568 C 274.636 330.748, 273.454 330, 266.941 330 C 261.887 330, 261 330.269, 261 331.800 C 261 332.790, 261.481 334.081, 262.068 334.668 C 262.656 335.256, 262.993 337.483, 262.818 339.618 C 262.501 343.488, 262.485 343.501, 257.750 343.805 L 253 344.110 253 340.041 C 253 337.804, 253.563 335.065, 254.250 333.956 C 255.280 332.293, 255.236 331.771, 254 330.985 C 253.175 330.460, 252.050 330.102, 251.500 330.190 C 250.950 330.278, 248.588 330.522, 246.250 330.732 M 285.428 333.469 C 284.101 335.495, 283.874 337.268, 284.385 341.615 C 285.578 351.772, 289.475 355.884, 294.676 352.477 C 297.133 350.867, 297.230 350.460, 296.754 343.802 C 296.185 335.854, 293.859 331.687, 289.714 331.190 C 287.829 330.964, 286.664 331.584, 285.428 333.469 M 195.496 339.006 C 194.300 340.942, 196.260 341.959, 204.065 343.453 C 209.046 344.406, 211.830 344.544, 212.500 343.870 C 214.025 342.337, 210.625 340.317, 205.205 339.535 C 202.617 339.162, 199.537 338.627, 198.359 338.347 C 197.182 338.067, 195.893 338.364, 195.496 339.006 M 225.280 373.075 C 222.208 374.235, 221.267 378.533, 223.536 381.040 C 225.980 383.741, 229.609 383.527, 231.548 380.567 C 234.260 376.428, 229.972 371.302, 225.280 373.075 M 274.937 373.338 C 270.368 375.604, 271.512 383, 276.431 383 C 279.034 383, 283.474 380.084, 280.950 380.032 C 280.097 380.014, 278.879 380.521, 278.242 381.158 C 276.638 382.762, 274 380.478, 274 377.485 C 274 374.795, 276.398 373.607, 279.007 375.004 C 281.376 376.272, 282.286 376.272, 281.503 375.005 C 280.163 372.836, 277.376 372.128, 274.937 373.338 M 304.280 373.075 C 301.208 374.235, 300.267 378.533, 302.536 381.040 C 304.980 383.741, 308.609 383.527, 310.548 380.567 C 313.260 376.428, 308.972 371.302, 304.280 373.075 M 326.937 373.338 C 322.368 375.604, 323.512 383, 328.431 383 C 331.034 383, 335.474 380.084, 332.950 380.032 C 332.097 380.014, 330.879 380.521, 330.242 381.158 C 328.638 382.762, 326 380.478, 326 377.485 C 326 374.795, 328.398 373.607, 331.007 375.004 C 333.376 376.272, 334.286 376.272, 333.503 375.005 C 332.163 372.836, 329.376 372.128, 326.937 373.338 M 155 378 C 155 380.750, 155.450 383, 156 383 C 156.550 383, 157 382.100, 157 381 C 157 379.889, 157.667 379, 158.500 379 C 159.325 379, 160 378.550, 160 378 C 160 377.450, 159.325 377, 158.500 377 C 156.120 377, 156.760 374.185, 159.250 373.706 C 160.877 373.392, 160.600 373.235, 158.250 373.136 L 155 373 155 378 M 166 378 C 166 380.750, 166.450 383, 167 383 C 167.550 383, 168 380.750, 168 378 C 168 375.250, 167.550 373, 167 373 C 166.450 373, 166 375.250, 166 378 M 174 378 C 174 383.531, 175.692 384.885, 176.187 379.750 L 176.500 376.500 178.466 379.750 C 179.547 381.538, 180.784 383, 181.216 383 C 181.647 383, 181.928 380.637, 181.840 377.750 C 181.730 374.152, 181.553 373.522, 181.277 375.750 C 180.776 379.785, 179.930 379.844, 177.659 376 C 175.109 371.683, 174 372.290, 174 378 M 188 378 C 188 382.862, 188.081 383, 190.929 383 C 194.085 383, 197 380.774, 197 378.363 C 197 374.982, 194.954 373, 191.465 373 L 188 373 188 378 M 210.474 375.950 C 211.313 377.573, 212 379.823, 212 380.950 C 212 384.043, 213.372 383.411, 214.608 379.750 C 215.211 377.962, 216.044 375.712, 216.459 374.750 C 216.878 373.779, 216.789 373, 216.260 373 C 215.735 373, 214.858 374.003, 214.311 375.229 L 213.316 377.459 212.123 375.229 C 211.467 374.003, 210.484 373, 209.939 373 C 209.394 373, 209.635 374.328, 210.474 375.950 M 238.195 377.750 C 238.458 381.840, 238.820 382.545, 240.805 382.827 C 242.073 383.006, 243.760 382.614, 244.555 381.954 C 246.180 380.606, 246.558 373, 245 373 C 244.450 373, 244 374.752, 244 376.893 C 244 379.310, 243.468 380.990, 242.598 381.324 C 240.559 382.106, 240 381.140, 240 376.833 C 240 374.725, 239.525 373, 238.945 373 C 238.311 373, 238.012 374.893, 238.195 377.750 M 252.136 378.250 C 252.211 381.137, 252.467 382.488, 252.706 381.250 C 253.241 378.471, 254.143 378.397, 255.768 381 C 257.468 383.722, 259.426 383.665, 257.966 380.936 C 257.147 379.407, 257.167 378.503, 258.042 377.449 C 259.903 375.207, 258.410 373, 255.031 373 C 252.024 373, 252.001 373.041, 252.136 378.250 M 287 378 C 287 380.750, 287.450 383, 288 383 C 288.550 383, 289 382.100, 289 381 C 289 379.533, 289.667 379, 291.500 379 C 293.333 379, 294 379.533, 294 381 C 294 382.100, 294.450 383, 295 383 C 295.550 383, 296 380.750, 296 378 C 296 375.250, 295.550 373, 295 373 C 294.450 373, 294 373.900, 294 375 C 294 376.467, 293.333 377, 291.500 377 C 289.667 377, 289 376.467, 289 375 C 289 373.900, 288.550 373, 288 373 C 287.450 373, 287 375.250, 287 378 M 317 378 C 317 380.750, 317.450 383, 318 383 C 318.550 383, 319 380.750, 319 378 C 319 375.250, 318.550 373, 318 373 C 317.450 373, 317 375.250, 317 378 M 340 378 C 340 382.803, 340.108 382.998, 342.750 382.937 C 345.393 382.876, 345.413 382.838, 343.250 381.969 C 340.461 380.848, 340.306 379, 343 379 C 344.100 379, 345 378.550, 345 378 C 345 377.450, 344.100 377, 343 377 C 340.256 377, 340.465 374.242, 343.250 373.706 C 345.179 373.334, 345.108 373.253, 342.750 373.136 C 340.099 373.005, 340 373.179, 340 378 M 190 378 C 190 381.311, 190.331 382.081, 191.643 381.823 C 192.546 381.645, 193.782 380.712, 194.388 379.750 C 195.698 377.670, 194.228 374.685, 191.643 374.177 C 190.331 373.919, 190 374.689, 190 378 M 225.250 374.662 C 223.302 375.448, 223.773 379.808, 225.931 380.963 C 227.388 381.743, 228.246 381.611, 229.431 380.427 C 232.848 377.009, 229.811 372.822, 225.250 374.662 M 253 375.427 C 253 376.354, 253.855 377, 255.083 377 C 257.520 377, 257.176 374.663, 254.667 374.177 C 253.680 373.985, 253 374.495, 253 375.427 M 304.250 374.662 C 302.302 375.448, 302.773 379.808, 304.931 380.963 C 306.388 381.743, 307.246 381.611, 308.431 380.427 C 311.848 377.009, 308.811 372.822, 304.250 374.662" stroke="none" fill="#1e656c" fill-rule="evenodd"/></svg>